<svg width="14" height="18" viewBox="0 0 14 18" fill="none" xmlns="http://www.w3.org/2000/svg">
<path fill-rule="evenodd" clip-rule="evenodd" d="M13.6369 15.1711L11.0369 10.7511C12.8967 8.7326 13.2136 5.73374 11.8169 3.37108C10.5303 1.15388 8.03516 -0.0703825 5.49427 0.268842C2.95337 0.608066 0.866765 2.44402 0.206898 4.92108C-0.00273597 5.72009 -0.0536969 6.55246 0.0568977 7.37108C0.165264 8.19024 0.437328 8.97923 0.856898 9.69108C2.01392 11.6458 4.12558 12.835 6.3969 12.8111C6.85433 12.8106 7.31035 12.7603 7.7569 12.6611L10.3469 17.0811C10.5438 17.4067 10.8592 17.6433 11.2269 17.7411C11.5958 17.8373 11.9877 17.7834 12.3169 17.5911L13.1669 17.1111C13.8236 16.6988 14.0321 15.8382 13.6369 15.1711ZM1.6369 9.25108C1.2801 8.63514 1.04579 7.956 0.946898 7.25108C0.854787 6.5592 0.89895 5.85599 1.0769 5.18108C1.25811 4.50845 1.56706 3.87697 1.9869 3.32108C2.41342 2.75872 2.947 2.28631 3.5569 1.93108C4.37982 1.46124 5.30934 1.20992 6.2569 1.20108C8.17095 1.20271 9.94221 2.21378 10.9169 3.86108C12.1298 5.96 11.7766 8.61256 10.0569 10.3211C9.39724 10.9607 8.5901 11.4278 7.7069 11.6811C5.35674 12.3152 2.86962 11.3261 1.5969 9.25108H1.6369ZM11.7869 16.8211L12.6369 16.3411H12.6569C12.7545 16.2605 12.8187 16.1464 12.8369 16.0211C12.8663 15.8925 12.8486 15.7577 12.7869 15.6411L10.2869 11.4111C10.0257 11.6303 9.74443 11.8244 9.4469 11.9911L8.9969 12.2211C8.8506 12.2928 8.70036 12.3563 8.5469 12.4111L11.0669 16.6411C11.1376 16.7583 11.2532 16.8415 11.3869 16.8711C11.5214 16.91 11.6661 16.892 11.7869 16.8211Z" fill="black"/>
</svg>
