<svg width="80" height="80" viewBox="0 0 80 80" fill="none" xmlns="http://www.w3.org/2000/svg">
<circle cx="40" cy="40" r="40" fill="#5F5F5F"/>
<path fill-rule="evenodd" clip-rule="evenodd" d="M50.2083 19L60 29.146L55.1042 34.2191L45.2083 23.9651L50.2083 19ZM20 57.8572V56.2381C20 56.2381 25.4167 36.7016 26.5625 34.5429C27.7083 32.3841 28.5135 31.385 30.1042 30.5492C32.1751 29.4611 35.7292 30.873 35.7292 30.873C35.7292 30.873 36.0239 30.659 36.4684 30.3614C36.9401 30.5571 37.4575 30.6651 38 30.6651C39.762 30.6651 41.258 29.5257 41.7913 27.9436C42.1325 27.8876 42.499 27.8557 42.9167 27.8508C45.9375 30.873 51.4583 36.4857 51.5625 36.9175C51.6667 37.3492 51.2939 38.7051 50.8333 39.9397C50.3166 41.3247 48.75 43.0699 48.75 43.0699C48.75 43.0699 49.5425 48.6801 47.6042 51.1651C46.5965 52.457 45.742 52.9878 44.2708 53.6477C37.2917 56.7778 23.9583 60.3397 23.9583 60.3397H22.3958L39.7917 42.3143L37.2917 39.7238L20 57.8572Z" fill="white"/>
</svg>
