<svg width="80" height="80" viewBox="0 0 80 80" fill="none" xmlns="http://www.w3.org/2000/svg">
<circle cx="40" cy="40" r="40" fill="#5F5F5F"/>
<path d="M17.381 25C16.066 25 15 26.0678 15 27.3851V55.4847C15 56.8019 16.066 57.8698 17.381 57.8698H36.875C36.8751 59.5986 38.2742 61 40 61C41.7258 61 43.1249 59.5986 43.125 57.8698H62.619C63.934 57.8698 65 56.8019 65 55.4847V27.3851C65 26.0678 63.934 25 62.619 25H17.381Z" fill="white"/>
<path d="M18 22.2608C26.2663 19.2208 31.9824 19.2722 40 22.2607V55.9999L18 56V22.2608Z" fill="white"/>
<path fill-rule="evenodd" clip-rule="evenodd" d="M19.156 23.0855V54.8315L38.844 54.8314V23.0817C35.2471 21.8035 32.1664 21.1742 29.0912 21.1685C26.0102 21.1628 22.8696 21.7829 19.156 23.0855ZM40 22.2607C31.9824 19.2722 26.2663 19.2208 18 22.2608V56L40 55.9999V22.2607Z" fill="#5F5F5F"/>
<path d="M40 22.2608C48.2663 19.2208 53.9824 19.2722 62 22.2607V55.9999L40 56V22.2608Z" fill="#FD9326"/>
<path fill-rule="evenodd" clip-rule="evenodd" d="M41.156 23.0855V54.8315L60.844 54.8314V23.0817C57.2471 21.8035 54.1664 21.1742 51.0912 21.1685C48.0102 21.1628 44.8696 21.7829 41.156 23.0855ZM62 22.2607C53.9824 19.2722 48.2663 19.2208 40 22.2608V56L62 55.9999V22.2607Z" fill="#5F5F5F"/>
<path fill-rule="evenodd" clip-rule="evenodd" d="M57 34.2309L49.4772 42L46 38.4078L47.2029 37.1656L49.4893 39.5269L55.8092 33L57 34.2309Z" fill="white"/>
</svg>
