<svg width="80" height="80" viewBox="0 0 80 80" fill="none" xmlns="http://www.w3.org/2000/svg">
<circle cx="40" cy="40" r="40" fill="#5F5F5F"/>
<path fill-rule="evenodd" clip-rule="evenodd" d="M21 27.4298C19.8954 27.4298 19 28.3252 19 29.4298V52.9923C19 54.0969 19.8954 54.9923 21 54.9923H37.375C37.3751 56.442 38.5503 57.6171 40 57.6171C41.4497 57.6171 42.6249 56.442 42.625 54.9923H59C60.1046 54.9923 61 54.0969 61 52.9923V29.4298C61 28.3252 60.1046 27.4298 59 27.4298H21Z" fill="white"/>
<path d="M21.4688 53.178V25.1545C24.8636 23.9469 27.734 23.3629 30.5641 23.3681C33.3918 23.3733 36.2094 23.9667 39.5 25.1528V53.1779L21.4688 53.178Z" fill="white" stroke="#5F5F5F"/>
<path d="M40.5 53.1723V25.1487C43.8948 23.9412 46.7652 23.3572 49.5954 23.3624C52.423 23.3676 55.2406 23.9609 58.5312 25.147V53.1722L40.5 53.1723Z" fill="white" stroke="#5F5F5F"/>
<circle cx="49.1875" cy="31.3673" r="1.3125" fill="#5F5F5F"/>
<rect x="47.875" y="33.9923" width="2.625" height="11.8125" rx="1" fill="#5F5F5F"/>
<rect x="45.25" y="45.8048" width="2.625" height="6.5625" rx="1" transform="rotate(-90 45.25 45.8048)" fill="#5F5F5F"/>
<rect x="46.5625" y="36.6173" width="2.625" height="3.9375" rx="1" transform="rotate(-90 46.5625 36.6173)" fill="#5F5F5F"/>
</svg>
