<svg width="5750" height="735" viewBox="0 0 5750 735" fill="none" xmlns="http://www.w3.org/2000/svg">
<path d="M773 50H612L387 475L162 50H2.05636e-06V720H160V361L349 720H425L613 363V720H773V50ZM1382.67 469C1379.67 305 1265.67 203 1123.67 203C977.672 203 857.672 311 857.672 469C857.672 628 977.672 735 1122.67 735C1237.67 735 1328.67 684 1371.67 578L1229.67 549C1202.67 598 1159.67 607 1122.67 607C1068.67 607 1027.67 570 1014.67 510H1382.67V469ZM1123.67 333C1169.67 333 1209.67 358 1224.67 412H1017.67C1032.67 361 1078.67 333 1123.67 333ZM1995.87 -2.86102e-05H1835.87V258C1796.87 223 1744.87 203 1679.87 203C1546.87 203 1434.87 311 1434.87 469C1434.87 628 1546.87 735 1679.87 735C1744.87 735 1796.87 715 1835.87 680V720H1995.87V-2.86102e-05ZM1712.87 599C1642.87 599 1591.87 547 1591.87 469C1591.87 392 1642.87 339 1712.87 339C1777.87 339 1835.87 392 1835.87 469C1835.87 547 1777.87 599 1712.87 599Z" fill="#FF9300"/>
<path d="M2468.42 710C2288.42 710 2147.42 567 2147.42 385C2147.42 203 2288.42 60 2468.42 60C2608.42 60 2713.42 132 2757.42 233L2777.42 225C2728.42 116 2616.42 40 2468.42 40C2276.42 40 2125.42 192 2125.42 385C2125.42 578 2276.42 730 2468.42 730C2616.42 730 2728.42 654 2777.42 545L2756.42 537C2711.42 639 2607.42 710 2468.42 710ZM3259.41 40C3068.41 40 2919.41 192 2919.41 385C2919.41 579 3068.41 730 3259.41 730C3449.41 730 3598.41 579 3598.41 385C3598.41 192 3449.41 40 3259.41 40ZM3259.41 710C3080.41 710 2941.41 567 2941.41 385C2941.41 204 3080.41 60 3259.41 60C3437.41 60 3576.41 204 3576.41 385C3576.41 567 3437.41 710 3259.41 710ZM4314.1 720L4004.1 50H3986.1L3676.1 720H3699.1L3790.1 524H4200.1L4291.1 720H4314.1ZM4191.1 504H3799.1L3995.1 80.9999L4191.1 504ZM4734.19 710C4554.19 710 4413.19 567 4413.19 385C4413.19 203 4554.19 60 4734.19 60C4874.19 60 4979.19 132 5023.19 233L5043.19 225C4994.19 116 4882.19 40 4734.19 40C4542.19 40 4391.19 192 4391.19 385C4391.19 578 4542.19 730 4734.19 730C4882.19 730 4994.19 654 5043.19 545L5022.19 537C4977.19 639 4873.19 710 4734.19 710ZM5749.18 50H5727.18V372H5242.18V50H5220.18V720H5242.18V392H5727.18V720H5749.18V50Z" fill="black"/>
</svg>
