<svg width="204" height="27" viewBox="0 0 204 27" fill="none" xmlns="http://www.w3.org/2000/svg">
    <path d="M27.4851 2.05H21.8501L13.9751 16.925L6.10012 2.05H0.430116V25.5H6.03012V12.935L12.6451 25.5H15.3051L21.8851 13.005V25.5H27.4851V2.05ZM49.058 16.715C48.953 10.975 44.963 7.405 39.993 7.405C34.883 7.405 30.683 11.185 30.683 16.715C30.683 22.28 34.883 26.025 39.958 26.025C43.983 26.025 47.168 24.24 48.673 20.53L43.703 19.515C42.758 21.23 41.253 21.545 39.958 21.545C38.068 21.545 36.633 20.25 36.178 18.15H49.058V16.715ZM39.993 11.955C41.603 11.955 43.003 12.83 43.528 14.72H36.283C36.808 12.935 38.418 11.955 39.993 11.955ZM70.7542 0.299999H65.1542V9.33C63.7892 8.105 61.9692 7.405 59.6942 7.405C55.0392 7.405 51.1192 11.185 51.1192 16.715C51.1192 22.28 55.0392 26.025 59.6942 26.025C61.9692 26.025 63.7892 25.325 65.1542 24.1V25.5H70.7542V0.299999ZM60.8492 21.265C58.3992 21.265 56.6142 19.445 56.6142 16.715C56.6142 14.02 58.3992 12.165 60.8492 12.165C63.1242 12.165 65.1542 14.02 65.1542 16.715C65.1542 19.445 63.1242 21.265 60.8492 21.265Z" fill="#FF9300"/>
    <path d="M87.4229 24.695C81.4029 24.695 76.6779 19.9 76.6779 13.775C76.6779 7.65 81.4029 2.855 87.4229 2.855C92.1479 2.855 95.6829 5.27 97.1529 8.875L98.3429 8.455C96.6979 4.43 92.6729 1.665 87.4229 1.665C80.7029 1.665 75.3829 7.02 75.3829 13.775C75.3829 20.53 80.7029 25.885 87.4229 25.885C92.6729 25.885 96.6979 23.12 98.3429 19.025L97.1179 18.675C95.6479 22.315 92.1129 24.695 87.4229 24.695ZM115.24 1.665C108.52 1.665 103.27 7.02 103.27 13.775C103.27 20.565 108.52 25.885 115.24 25.885C121.925 25.885 127.175 20.565 127.175 13.775C127.175 7.02 121.925 1.665 115.24 1.665ZM115.24 24.695C109.22 24.695 104.565 19.9 104.565 13.775C104.565 7.685 109.22 2.855 115.24 2.855C121.225 2.855 125.88 7.685 125.88 13.775C125.88 19.9 121.225 24.695 115.24 24.695ZM152.498 25.5L141.753 2.05H140.633L129.888 25.5H131.218L134.263 18.885H148.123L151.168 25.5H152.498ZM147.633 17.73H134.788L141.193 3.73L147.633 17.73ZM167.223 24.695C161.203 24.695 156.478 19.9 156.478 13.775C156.478 7.65 161.203 2.855 167.223 2.855C171.948 2.855 175.483 5.27 176.953 8.875L178.143 8.455C176.498 4.43 172.473 1.665 167.223 1.665C160.503 1.665 155.183 7.02 155.183 13.775C155.183 20.53 160.503 25.885 167.223 25.885C172.473 25.885 176.498 23.12 178.143 19.025L176.918 18.675C175.448 22.315 171.913 24.695 167.223 24.695ZM203.09 2.05H201.795V13.11H185.555V2.05H184.295V25.5H185.555V14.265H201.795V25.5H203.09V2.05Z" fill="black"/>
</svg>