<svg width="32" height="32" viewBox="0 0 32 32" fill="none" xmlns="http://www.w3.org/2000/svg">
<circle cx="16" cy="16" r="14.5" stroke="#FF9300" stroke-width="3"/>
<path fill-rule="evenodd" clip-rule="evenodd" d="M16 15C18.2091 15 20 13.2091 20 11C20 8.79086 18.2091 7 16 7C13.7909 7 12 8.79086 12 11C12 13.2091 13.7909 15 16 15ZM16 13C17.1046 13 18 12.1046 18 11C18 9.89543 17.1046 9 16 9C14.8954 9 14 9.89543 14 11C14 12.1046 14.8954 13 16 13Z" fill="black"/>
<path d="M19 18C19.5523 18 20 18.4477 20 19V25H22V19C22 17.3431 20.6569 16 19 16H13C11.3432 16 10 17.3431 10 19V25H12V19C12 18.4477 12.4477 18 13 18H19Z" fill="black"/>
</svg>
