<svg width="64" height="64" viewBox="0 0 64 64" fill="none" xmlns="http://www.w3.org/2000/svg">
<path d="M45.5 22.5C43.835 21.975 42.005 21.75 40.25 21.75C37.325 21.75 34.175 22.35 32 24C29.825 22.35 26.675 21.75 23.75 21.75C20.825 21.75 17.675 22.35 15.5 24V47.25C17.675 45.6 20.825 45 23.75 45C26.675 45 29.825 45.6 32 47.25C34.175 45.6 37.325 45 40.25 45C42.005 45 43.835 45.225 45.5 45.75C46.625 46.125 47.6 46.575 48.5 47.25V24C47.6 23.325 46.625 22.875 45.5 22.5ZM45.5 42.75C43.85 42.225 42.05 42 40.25 42C37.7 42 34.025 42.975 32 44.25V27C34.025 25.725 37.7 24.75 40.25 24.75C42.05 24.75 43.85 24.975 45.5 25.5V42.75Z" fill="white"/>
</svg>
