<svg width="64" height="64" viewBox="0 0 64 64" fill="none" xmlns="http://www.w3.org/2000/svg">
<circle cx="32" cy="32" r="32" fill="#FE9501"/>
<path fill-rule="evenodd" clip-rule="evenodd" d="M35.6458 21.3542L39.1458 18L46 24.8542L42.5729 28.2813L35.6458 21.3542ZM18 44.25V43.1563C18 43.1563 21.7917 29.9583 22.5938 28.5C23.3958 27.0417 23.9595 26.3667 25.0729 25.8021C26.5226 25.067 29.0104 26.0208 29.0104 26.0208C29.0104 26.0208 30.4105 25.0395 31.4167 24.6354L31.5133 24.5966C32.4369 24.2252 33.0202 23.9906 34.0417 23.9792C36.1562 26.0208 40.0208 29.8125 40.0938 30.1042C40.1667 30.3958 39.9057 31.3118 39.5833 32.1458C39.2216 33.0815 38.125 34.2604 38.125 34.2604C38.125 34.2604 38.6798 38.0504 37.3229 39.7292C36.6175 40.6019 36.0194 40.9605 34.9896 41.4063C30.1042 43.5208 20.7708 45.9271 20.7708 45.9271H19.6771L30.1003 35.5038C30.3761 35.5958 30.6712 35.6457 30.9779 35.6457C32.5082 35.6457 33.7487 34.4051 33.7487 32.8748C33.7487 31.3445 32.5082 30.104 30.9779 30.104C29.4476 30.104 28.207 31.3445 28.207 32.8748C28.207 33.1882 28.2591 33.4894 28.3549 33.7703L18 44.25Z" fill="white"/>
</svg>
