<svg width="52" height="52" viewBox="0 0 52 52" fill="none" xmlns="http://www.w3.org/2000/svg">
<circle cx="26" cy="26" r="26" fill="#20B000"/>
<path fill-rule="evenodd" clip-rule="evenodd" d="M34.6054 13.1512C34.2134 13.0524 33.803 13 33.3804 13H17.9004C15.139 13 12.9004 15.2386 12.9004 18V34C12.9004 36.7614 15.139 39 17.9004 39H33.3804C36.1418 39 38.3804 36.7614 38.3804 34V19.7224L34.6054 13.1512ZM32.6608 14.2999H18.1008V20.6199C18.1008 21.7244 18.9963 22.6199 20.1008 22.6199H30.6608C31.7654 22.6199 32.6608 21.7244 32.6608 20.6199V14.2999ZM33.6949 37.96H18.0949L18.0949 29.56C18.0949 28.4555 18.9904 27.56 20.0949 27.56H31.6949C32.7995 27.56 33.6949 28.4555 33.6949 29.56V37.96Z" fill="white"/>
</svg>