<svg width="22" height="24" viewBox="0 0 22 24" fill="none" xmlns="http://www.w3.org/2000/svg">
<path fill-rule="evenodd" clip-rule="evenodd" d="M9.75002 11.5V2H12.25V11.5H9.75002ZM17.224 9.3876C16.6531 8.02751 15.6524 6.89185 14.375 6.15433L15.625 3.98927C17.3755 4.99994 18.7468 6.55621 19.5291 8.42004C20.3115 10.2839 20.4617 12.3526 19.9569 14.3099C19.4522 16.2673 18.3201 18.0053 16.734 19.2584C15.1479 20.5114 13.195 21.2104 11.174 21.2484C9.15298 21.2864 7.17517 20.6614 5.54304 19.4689C3.9109 18.2764 2.71431 16.5821 2.13628 14.6452C1.55824 12.7082 1.63059 10.6353 2.34225 8.74334C3.05391 6.85141 4.36571 5.24467 6.077 4.16888L7.40754 6.2854C6.15876 7.07044 5.2015 8.24292 4.68218 9.62352C4.16286 11.0041 4.11007 12.5168 4.53188 13.9303C4.95369 15.3437 5.82688 16.5801 7.01789 17.4503C8.2089 18.3204 9.65218 18.7766 11.127 18.7488C12.6017 18.7211 14.0268 18.211 15.1843 17.2966C16.3417 16.3823 17.1678 15.1139 17.5361 13.6856C17.9045 12.2573 17.7948 10.7477 17.224 9.3876Z" fill="#929292"/>
</svg>
