<svg width="22" height="24" viewBox="0 0 22 24" fill="none" xmlns="http://www.w3.org/2000/svg">
<path d="M10.1545 3.33333V2H11H11.8455V3.33333C11.8455 3.33333 14.2727 4.08333 14.9818 5.33333C16.0131 7.15127 15.5 8.66667 15.9091 12C16.0863 13.4442 16.3154 14.9755 17.1364 16.1667C17.8953 17.2678 20 18 20 18V20H12.4727V20.5C12.4727 21.3284 11.8134 22 11 22C10.1866 22 9.52727 21.3284 9.52727 20.5V20H2V18C2 18 4.10472 17.2678 4.86364 16.1667C5.68462 14.9755 5.91367 13.4442 6.09091 12C6.5 8.66667 5.98691 7.15127 7.01818 5.33333C7.72727 4.08333 10.1545 3.33333 10.1545 3.33333Z" fill="#929292"/>
<circle cx="16" cy="6" r="3.5" fill="#FF0000" stroke="#E2E2E2"/>
</svg>
