<svg width="22" height="24" viewBox="0 0 22 24" fill="none" xmlns="http://www.w3.org/2000/svg">
<path d="M15 12C15 14.2091 13.2091 16 11 16C8.79086 16 7 14.2091 7 12C7 9.79086 8.79086 8 11 8C13.2091 8 15 9.79086 15 12Z" fill="#929292"/>
<path fill-rule="evenodd" clip-rule="evenodd" d="M10 22V19.9381C9.62176 19.8909 9.25171 19.8174 8.89177 19.7193L8.10467 21.6238L6.25631 20.8599L7.04365 18.9548C6.71161 18.7655 6.39445 18.5531 6.09434 18.3198L4.63602 19.7782L3.2218 18.364L4.68013 16.9056C4.44943 16.6088 4.23917 16.2954 4.05148 15.9674L2.14771 16.7577L1.38088 14.9105L3.28405 14.1205C3.1843 13.7567 3.10959 13.3825 3.06189 13H1V11H3.06189C3.10906 10.6218 3.18263 10.2517 3.2807 9.89179L1.37612 9.10464L2.14003 7.25628L4.04518 8.04366C4.23448 7.71162 4.44686 7.39445 4.68016 7.09434L3.22185 5.63603L4.63606 4.22182L6.09437 5.68013C6.39119 5.4494 6.70469 5.23912 7.03277 5.05141L6.24244 3.14763L8.08959 2.38081L8.87968 4.28401C9.24343 4.18428 9.61752 4.10959 10 4.06189V2H12V4.06189C12.3783 4.10906 12.7483 4.18264 13.1083 4.28072L13.8954 2.37624L15.7438 3.14015L14.9564 5.04523C15.2884 5.2345 15.6055 5.44686 15.9056 5.68013L17.3639 4.22182L18.7782 5.63603L17.3198 7.09434C17.5506 7.39114 17.7608 7.70462 17.9485 8.03266L19.8524 7.24229L20.6193 9.08944L18.716 9.87957C18.8157 10.2433 18.8904 10.6175 18.9381 11H21V13H18.9381C18.8909 13.3783 18.8174 13.7483 18.7193 14.1083L20.6237 14.8954L19.8597 16.7437L17.9548 15.9564C17.7655 16.2884 17.5531 16.6056 17.3199 16.9056L18.7782 18.364L17.364 19.7782L15.9057 18.3198C15.6089 18.5505 15.2955 18.7608 14.9675 18.9485L15.7578 20.8524L13.9107 21.6192L13.1206 19.7159C12.7567 19.8157 12.3826 19.8904 12 19.9381V22H10ZM16 12C16 14.7614 13.7614 17 11 17C8.23858 17 6 14.7614 6 12C6 9.23858 8.23858 7 11 7C13.7614 7 16 9.23858 16 12Z" fill="#929292"/>
</svg>
