<svg width="442" height="132" viewBox="0 0 442 132" fill="none" xmlns="http://www.w3.org/2000/svg">
<path d="M188.992 54.0952C175.211 54.0952 164.415 43.2 164.415 29.3333C164.415 15.4667 175.211 4.57141 188.992 4.57141C199.711 4.57141 207.75 10.0571 211.119 17.7524L212.65 17.1428C208.899 8.83808 200.323 3.04761 188.992 3.04761C174.292 3.04761 162.731 14.6286 162.731 29.3333C162.731 44.0381 174.292 55.619 188.992 55.619C200.323 55.619 208.899 49.8286 212.65 41.5238L211.042 40.9143C207.597 48.6857 199.634 54.0952 188.992 54.0952Z" fill="white"/>
<path d="M249.553 3.04761C234.93 3.04761 223.522 14.6286 223.522 29.3333C223.522 44.1143 234.93 55.619 249.553 55.619C264.101 55.619 275.509 44.1143 275.509 29.3333C275.509 14.6286 264.101 3.04761 249.553 3.04761ZM249.553 54.0952C235.849 54.0952 225.206 43.2 225.206 29.3333C225.206 15.5428 235.849 4.57141 249.553 4.57141C263.182 4.57141 273.824 15.5428 273.824 29.3333C273.824 43.2 263.182 54.0952 249.553 54.0952Z" fill="white"/>
<path d="M330.304 54.8571L306.57 3.80951H305.192L281.457 54.8571H283.218L290.185 39.9238H321.576L328.544 54.8571H330.304ZM320.887 38.4H290.874L305.881 6.17141L320.887 38.4Z" fill="white"/>
<path d="M362.468 54.0952C348.686 54.0952 337.891 43.2 337.891 29.3333C337.891 15.4667 348.686 4.57141 362.468 4.57141C373.187 4.57141 381.226 10.0571 384.595 17.7524L386.126 17.1428C382.375 8.83808 373.799 3.04761 362.468 3.04761C347.768 3.04761 336.206 14.6286 336.206 29.3333C336.206 44.0381 347.768 55.619 362.468 55.619C373.799 55.619 382.375 49.8286 386.126 41.5238L384.518 40.9143C381.073 48.6857 373.11 54.0952 362.468 54.0952Z" fill="white"/>
<path d="M440.18 3.80951H438.495V28.3428H401.362V3.80951H399.677V54.8571H401.362V29.8667H438.495V54.8571H440.18V3.80951Z" fill="white"/>
<path d="M188.992 54.0952C175.211 54.0952 164.415 43.2 164.415 29.3333C164.415 15.4667 175.211 4.57141 188.992 4.57141C199.711 4.57141 207.75 10.0571 211.119 17.7524L212.65 17.1428C208.899 8.83808 200.323 3.04761 188.992 3.04761C174.292 3.04761 162.731 14.6286 162.731 29.3333C162.731 44.0381 174.292 55.619 188.992 55.619C200.323 55.619 208.899 49.8286 212.65 41.5238L211.042 40.9143C207.597 48.6857 199.634 54.0952 188.992 54.0952Z" stroke="white" stroke-width="2"/>
<path d="M249.553 3.04761C234.93 3.04761 223.522 14.6286 223.522 29.3333C223.522 44.1143 234.93 55.619 249.553 55.619C264.101 55.619 275.509 44.1143 275.509 29.3333C275.509 14.6286 264.101 3.04761 249.553 3.04761ZM249.553 54.0952C235.849 54.0952 225.206 43.2 225.206 29.3333C225.206 15.5428 235.849 4.57141 249.553 4.57141C263.182 4.57141 273.824 15.5428 273.824 29.3333C273.824 43.2 263.182 54.0952 249.553 54.0952Z" stroke="white" stroke-width="2"/>
<path d="M330.304 54.8571L306.57 3.80951H305.192L281.457 54.8571H283.218L290.185 39.9238H321.576L328.544 54.8571H330.304ZM320.887 38.4H290.874L305.881 6.17141L320.887 38.4Z" stroke="white" stroke-width="2"/>
<path d="M362.468 54.0952C348.686 54.0952 337.891 43.2 337.891 29.3333C337.891 15.4667 348.686 4.57141 362.468 4.57141C373.187 4.57141 381.226 10.0571 384.595 17.7524L386.126 17.1428C382.375 8.83808 373.799 3.04761 362.468 3.04761C347.768 3.04761 336.206 14.6286 336.206 29.3333C336.206 44.0381 347.768 55.619 362.468 55.619C373.799 55.619 382.375 49.8286 386.126 41.5238L384.518 40.9143C381.073 48.6857 373.11 54.0952 362.468 54.0952Z" stroke="white" stroke-width="2"/>
<path d="M440.18 3.80951H438.495V28.3428H401.362V3.80951H399.677V54.8571H401.362V29.8667H438.495V54.8571H440.18V3.80951Z" stroke="white" stroke-width="2"/>
<path d="M59.1839 3.80952H46.8571L29.6302 36.1905L12.4034 3.80952H0V54.8571H12.2502V27.5048L26.7208 54.8571H32.5397L46.9337 27.6571V54.8571H59.1839V3.80952Z" fill="white"/>
<path d="M105.863 35.7333C105.633 23.2381 96.9048 15.4667 86.0327 15.4667C74.8544 15.4667 65.6667 23.6952 65.6667 35.7333C65.6667 47.8476 74.8544 56 85.9561 56C94.761 56 101.728 52.1143 105.021 44.0381L94.1485 41.8286C92.0813 45.5619 88.789 46.2476 85.9561 46.2476C81.8217 46.2476 78.6826 43.4286 77.6872 38.8571H105.863V35.7333ZM86.0327 25.3714C89.5547 25.3714 92.6172 27.2762 93.7657 31.3905H77.9169C79.0654 27.5048 82.5873 25.3714 86.0327 25.3714Z" fill="white"/>
<path d="M152.811 0H140.561V19.6571C137.575 16.9905 133.594 15.4667 128.617 15.4667C118.434 15.4667 109.859 23.6952 109.859 35.7333C109.859 47.8476 118.434 56 128.617 56C133.594 56 137.575 54.4762 140.561 51.8095V54.8571H152.811V0ZM131.144 45.6381C125.784 45.6381 121.88 41.6762 121.88 35.7333C121.88 29.8667 125.784 25.8286 131.144 25.8286C136.12 25.8286 140.561 29.8667 140.561 35.7333C140.561 41.6762 136.12 45.6381 131.144 45.6381Z" fill="white"/>
<path d="M93.542 98.8713C89.0853 98.8713 85.9904 101.335 85.9904 105.155C85.9904 108.111 87.8473 109.59 91.066 110.452L96.6369 111.807C99.7318 112.547 101.465 113.532 101.465 116.612C101.465 120.062 98.6176 122.279 94.2847 122.279C89.7043 122.279 86.238 119.815 85.8666 115.873L85 115.996C85.4952 120.185 89.2091 122.895 94.1609 122.895C98.989 122.895 102.208 120.431 102.208 116.489C102.208 112.67 99.2366 111.684 96.6369 111.068L91.5612 109.836C88.9615 109.22 86.8569 108.235 86.8569 105.155C86.8569 101.705 89.8281 99.6105 93.6657 99.6105C97.751 99.6105 100.475 101.828 101.217 105.278L101.96 105.031C101.094 101.459 98.1224 98.8713 93.542 98.8713Z" fill="white" stroke="white"/>
<path d="M108.15 99.241V122.526H108.892V112.547H117.558C122.139 112.547 125.11 109.713 125.11 105.894C125.11 102.075 122.139 99.241 117.558 99.241H108.15ZM108.892 111.807V99.9802H117.558C121.644 99.9802 124.367 102.444 124.367 105.894C124.367 109.343 121.644 111.807 117.558 111.807H108.892Z" fill="white" stroke="white"/>
<path d="M176.485 99.9802V99.241H156.678V99.9802H166.21V122.526H167.077V99.9802H176.485Z" fill="white" stroke="white"/>
<path d="M196.912 121.91H182.18V99.241H181.437V122.526H196.912V121.91Z" fill="white" stroke="white"/>
<path d="M202.607 122.526V99.241H201.864V122.526H202.607Z" fill="white" stroke="white"/>
<path d="M232.318 110.575H219.319V111.314H231.575C231.451 117.351 227.118 122.279 220.805 122.279C214.615 122.279 209.663 117.351 209.663 110.945C209.663 104.538 214.491 99.6105 220.805 99.6105C225.633 99.6105 229.347 102.074 230.832 105.647L231.575 105.401C229.966 101.582 226.004 98.9945 220.805 98.9945C214.12 98.9945 208.92 104.292 208.92 110.945C208.92 117.598 214.12 122.895 220.805 122.895C227.737 122.895 232.318 117.474 232.318 110.945V110.575Z" fill="white" stroke="white"/>
<path d="M257.077 99.241H256.334V110.452H239.498V99.241H238.755V122.526H239.498V111.191H256.334V122.649H257.077V99.241Z" fill="white" stroke="white"/>
<path d="M281.96 99.9802V99.241H262.152V99.9802H271.685V122.526H272.551V99.9802H281.96Z" fill="white" stroke="white"/>
<path d="M312.043 99.241H306.472L298.673 114.025L290.873 99.241H285.303V122.526H290.873V110.083L297.435 122.526H300.034L306.596 110.083V122.526H312.166V99.241H312.043Z" fill="white"/>
<path d="M333.459 113.902C333.336 108.235 329.374 104.662 324.422 104.662C319.347 104.662 315.137 108.358 315.137 113.902C315.137 119.446 319.347 123.142 324.298 123.142C328.26 123.142 331.479 121.417 332.964 117.721L328.012 116.736C327.022 118.46 325.536 118.707 324.298 118.707C322.441 118.707 320.956 117.475 320.584 115.38H333.336V113.902H333.459ZM324.422 109.097C326.032 109.097 327.393 109.96 327.888 111.808H320.708C321.327 110.083 322.937 109.097 324.422 109.097Z" fill="white"/>
<path d="M355 97.5161H349.429V106.51C348.067 105.278 346.334 104.538 343.982 104.538C339.402 104.538 335.44 108.234 335.44 113.778C335.44 119.322 339.278 123.018 343.982 123.018C346.21 123.018 348.067 122.279 349.429 121.047V122.402H355V97.5161ZM345.096 118.337C342.62 118.337 340.887 116.489 340.887 113.778C340.887 111.068 342.62 109.22 345.096 109.22C347.325 109.22 349.305 111.068 349.305 113.778C349.429 116.612 347.448 118.337 345.096 118.337Z" fill="white"/>
<path d="M126.595 95.2987C126.348 95.5451 125.976 95.9147 125.729 96.2843L125.976 96.5307C126.224 96.1611 126.595 95.9147 126.843 95.5451C135.137 87.2907 148.507 87.2907 156.802 95.5451C165.096 103.799 165.096 117.105 156.802 125.359C156.554 125.606 156.183 125.975 155.811 126.222L156.059 126.468C156.43 126.222 156.678 125.852 157.049 125.606C165.468 117.228 165.468 103.676 157.049 95.1755C148.631 86.9211 135.014 86.9211 126.595 95.2987Z" fill="white"/>
<path d="M155.193 126.345C147.022 133.121 134.766 132.628 127.215 125.113C119.663 117.598 119.168 105.401 125.977 97.2699L125.358 96.6539C118.178 105.155 118.673 117.844 126.596 125.729C134.519 133.614 147.27 134.107 155.812 126.961L155.193 126.345Z" fill="white"/>
</svg>
