<svg width="64" height="64" viewBox="0 0 64 64" fill="none" xmlns="http://www.w3.org/2000/svg">
<path d="M0 32C0 14.3269 14.3269 0 32 0C49.6731 0 64 14.3269 64 32C64 49.6731 49.6731 64 32 64C14.3269 64 0 49.6731 0 32Z" fill="none"/>
<path d="M46.9964 40.9807L42.6095 38.4471C42.5374 38.4059 42.4579 38.3792 42.3755 38.3687C42.2931 38.3581 42.2095 38.3639 42.1293 38.3857C42.0492 38.4075 41.9741 38.4449 41.9084 38.4957C41.8427 38.5465 41.7877 38.6097 41.7464 38.6818L40.9549 40.054C40.7799 40.3562 40.8833 40.746 41.1856 40.921L45.5725 43.4545C45.6446 43.4958 45.7241 43.5225 45.8065 43.533C45.8889 43.5435 45.9725 43.5378 46.0527 43.516C46.1328 43.4942 46.2079 43.4568 46.2736 43.406C46.3393 43.3552 46.3943 43.2919 46.4356 43.2199L47.2271 41.8477C47.4021 41.5454 47.2947 41.1557 46.9964 40.9807ZM41.7424 25.3182C41.7837 25.3902 41.8387 25.4535 41.9044 25.5043C41.9701 25.5551 42.0452 25.5925 42.1254 25.6143C42.2055 25.636 42.2891 25.6418 42.3715 25.6313C42.4539 25.6208 42.5334 25.5941 42.6055 25.5528L46.9924 23.0193C47.2947 22.8443 47.3981 22.4545 47.2231 22.1523L46.4356 20.7841C46.3943 20.712 46.3393 20.6487 46.2736 20.5979C46.2079 20.5471 46.1328 20.5098 46.0527 20.488C45.9725 20.4662 45.8889 20.4604 45.8065 20.4709C45.7241 20.4815 45.6446 20.5081 45.5725 20.5494L41.1856 23.0829C41.0403 23.1676 40.9345 23.3064 40.8913 23.4688C40.8481 23.6313 40.871 23.8043 40.9549 23.95L41.7424 25.3182ZM48.6629 30.5682H43.572C43.222 30.5682 42.9356 30.8545 42.9356 31.2045V32.7954C42.9356 33.1454 43.222 33.4318 43.572 33.4318H48.6629C49.0129 33.4318 49.2992 33.1454 49.2992 32.7954V31.2045C49.2992 30.8545 49.0129 30.5682 48.6629 30.5682ZM36.4089 16.2102C36.1742 16.2102 35.9356 16.2738 35.7169 16.421L21.6174 25.6363H15.0947C14.7447 25.6363 14.4583 25.9227 14.4583 26.2727V37.7273C14.4583 38.0772 14.7447 38.3636 15.0947 38.3636H21.6174L35.7169 47.579C35.9356 47.7221 36.1782 47.7897 36.4089 47.7897C37.0731 47.7897 37.6856 47.2608 37.6856 46.513V17.4869C37.6856 16.7392 37.0731 16.2102 36.4089 16.2102Z" fill="white"/>
</svg>
