<svg width="64" height="64" viewBox="0 0 64 64" fill="none" xmlns="http://www.w3.org/2000/svg">
<path fill-rule="evenodd" clip-rule="evenodd" d="M18.9297 14C18.9297 13.4477 19.3774 13 19.9297 13H24.863C25.4153 13 25.863 13.4477 25.863 14V39.7333C25.863 40.2856 25.4153 40.7333 24.863 40.7333H19.9297C19.3774 40.7333 18.9297 40.2856 18.9297 39.7333V14ZM20.6641 16.4668C20.6641 15.9881 21.0521 15.6001 21.5307 15.6001H23.2641C23.7427 15.6001 24.1307 15.9881 24.1307 16.4668C24.1307 16.9454 23.7427 17.3334 23.2641 17.3334H21.5307C21.0521 17.3334 20.6641 16.9454 20.6641 16.4668ZM21.5307 34.6665C21.0521 34.6665 20.6641 35.0545 20.6641 35.5332C20.6641 36.0118 21.0521 36.3998 21.5307 36.3998H23.2641C23.7427 36.3998 24.1307 36.0118 24.1307 35.5332C24.1307 35.0545 23.7427 34.6665 23.2641 34.6665H21.5307Z" fill="white"/>
<path fill-rule="evenodd" clip-rule="evenodd" d="M27.5977 14C27.5977 13.4477 28.0454 13 28.5977 13H33.531C34.0833 13 34.531 13.4477 34.531 14V39.7333C34.531 40.2856 34.0833 40.7333 33.531 40.7333H28.5977C28.0454 40.7333 27.5977 40.2856 27.5977 39.7333V14ZM29.332 16.4668C29.332 15.9881 29.7201 15.6001 30.1987 15.6001H31.932C32.4107 15.6001 32.7987 15.9881 32.7987 16.4668C32.7987 16.9454 32.4107 17.3334 31.932 17.3334H30.1987C29.7201 17.3334 29.332 16.9454 29.332 16.4668ZM30.1987 34.6665C29.7201 34.6665 29.332 35.0545 29.332 35.5332C29.332 36.0118 29.7201 36.3998 30.1987 36.3998H31.932C32.4107 36.3998 32.7987 36.0118 32.7987 35.5332C32.7987 35.0545 32.4107 34.6665 31.932 34.6665H30.1987Z" fill="white"/>
<circle cx="32" cy="32" r="32" fill="#5F5F5F"/>
<path fill-rule="evenodd" clip-rule="evenodd" d="M19.9297 14C19.9297 13.4477 20.3774 13 20.9297 13H25.863C26.4153 13 26.863 13.4477 26.863 14V39.7333C26.863 40.2856 26.4153 40.7333 25.863 40.7333H20.9297C20.3774 40.7333 19.9297 40.2856 19.9297 39.7333V14ZM21.6641 16.4668C21.6641 15.9881 22.0521 15.6001 22.5307 15.6001H24.2641C24.7427 15.6001 25.1307 15.9881 25.1307 16.4668C25.1307 16.9454 24.7427 17.3334 24.2641 17.3334H22.5307C22.0521 17.3334 21.6641 16.9454 21.6641 16.4668ZM22.5307 34.6665C22.0521 34.6665 21.6641 35.0545 21.6641 35.5332C21.6641 36.0118 22.0521 36.3998 22.5307 36.3998H24.2641C24.7427 36.3998 25.1307 36.0118 25.1307 35.5332C25.1307 35.0545 24.7427 34.6665 24.2641 34.6665H22.5307Z" fill="white"/>
<path fill-rule="evenodd" clip-rule="evenodd" d="M28.5977 14C28.5977 13.4477 29.0454 13 29.5977 13H34.531C35.0833 13 35.531 13.4477 35.531 14V39.7333C35.531 40.2856 35.0833 40.7333 34.531 40.7333H29.5977C29.0454 40.7333 28.5977 40.2856 28.5977 39.7333V14ZM30.332 16.4668C30.332 15.9881 30.7201 15.6001 31.1987 15.6001H32.932C33.4107 15.6001 33.7987 15.9881 33.7987 16.4668C33.7987 16.9454 33.4107 17.3334 32.932 17.3334H31.1987C30.7201 17.3334 30.332 16.9454 30.332 16.4668ZM31.1987 34.6665C30.7201 34.6665 30.332 35.0545 30.332 35.5332C30.332 36.0118 30.7201 36.3998 31.1987 36.3998H32.932C33.4107 36.3998 33.7987 36.0118 33.7987 35.5332C33.7987 35.0545 33.4107 34.6665 32.932 34.6665H31.1987Z" fill="white"/>
<path fill-rule="evenodd" clip-rule="evenodd" d="M35.7342 20.5861C35.6221 20.0453 35.9697 19.5161 36.5104 19.404L41.3411 18.4029C41.8819 18.2908 42.4112 18.6384 42.5233 19.1792L46.5141 38.4367C46.6262 38.9775 46.2787 39.5067 45.7379 39.6188L40.9072 40.6199C40.3664 40.732 39.8371 40.3844 39.7251 39.8436L35.7342 20.5861ZM37.7778 21.9072C37.7019 21.541 37.9372 21.1827 38.3034 21.1068L40.3719 20.6781C40.7381 20.6022 41.0964 20.8376 41.1723 21.2037C41.2482 21.5699 41.0129 21.9282 40.6467 22.0041L38.5782 22.4328C38.212 22.5087 37.8536 22.2734 37.7778 21.9072ZM41.3265 35.6927C40.9604 35.7685 40.7251 36.1269 40.8009 36.4931C40.8768 36.8592 41.2352 37.0945 41.6013 37.0187L43.6699 36.59C44.036 36.5141 44.2714 36.1557 44.1955 35.7896C44.1196 35.4234 43.7612 35.1881 43.3951 35.264L41.3265 35.6927Z" fill="white"/>
<rect x="16.4648" y="41.6001" width="32.0667" height="4.33333" rx="1" fill="white"/>
<path d="M19.0664 46.7998H23.3997V49.8331C23.3997 51.0298 22.4297 51.9998 21.2331 51.9998C20.0365 51.9998 19.0664 51.0298 19.0664 49.8331V46.7998Z" fill="white"/>
<path d="M41.5977 46.8H45.931V49.8334C45.931 51.03 44.9609 52 43.7643 52C42.5677 52 41.5977 51.03 41.5977 49.8334V46.8Z" fill="white"/>
</svg>
