<svg width="64" height="64" viewBox="0 0 64 64" fill="none" xmlns="http://www.w3.org/2000/svg">
<circle cx="32" cy="32" r="32" fill="#FD9326"/>
<path fill-rule="evenodd" clip-rule="evenodd" d="M18.9297 14C18.9297 13.4477 19.3774 13 19.9297 13H24.863C25.4153 13 25.863 13.4477 25.863 14V39.7333C25.863 40.2856 25.4153 40.7333 24.863 40.7333H19.9297C19.3774 40.7333 18.9297 40.2856 18.9297 39.7333V14ZM20.6641 16.4668C20.6641 15.9881 21.0521 15.6001 21.5307 15.6001H23.2641C23.7427 15.6001 24.1307 15.9881 24.1307 16.4668C24.1307 16.9454 23.7427 17.3334 23.2641 17.3334H21.5307C21.0521 17.3334 20.6641 16.9454 20.6641 16.4668ZM21.5307 34.6665C21.0521 34.6665 20.6641 35.0545 20.6641 35.5332C20.6641 36.0118 21.0521 36.3998 21.5307 36.3998H23.2641C23.7427 36.3998 24.1307 36.0118 24.1307 35.5332C24.1307 35.0545 23.7427 34.6665 23.2641 34.6665H21.5307Z" fill="white"/>
<path fill-rule="evenodd" clip-rule="evenodd" d="M27.5977 14C27.5977 13.4477 28.0454 13 28.5977 13H33.531C34.0833 13 34.531 13.4477 34.531 14V39.7333C34.531 40.2856 34.0833 40.7333 33.531 40.7333H28.5977C28.0454 40.7333 27.5977 40.2856 27.5977 39.7333V14ZM29.332 16.4668C29.332 15.9881 29.7201 15.6001 30.1987 15.6001H31.932C32.4107 15.6001 32.7987 15.9881 32.7987 16.4668C32.7987 16.9454 32.4107 17.3334 31.932 17.3334H30.1987C29.7201 17.3334 29.332 16.9454 29.332 16.4668ZM30.1987 34.6665C29.7201 34.6665 29.332 35.0545 29.332 35.5332C29.332 36.0118 29.7201 36.3998 30.1987 36.3998H31.932C32.4107 36.3998 32.7987 36.0118 32.7987 35.5332C32.7987 35.0545 32.4107 34.6665 31.932 34.6665H30.1987Z" fill="white"/>
<path fill-rule="evenodd" clip-rule="evenodd" d="M34.7342 20.5861C34.6221 20.0453 34.9697 19.5161 35.5104 19.404L40.3411 18.4029C40.8819 18.2908 41.4112 18.6384 41.5233 19.1792L45.5141 38.4367C45.6262 38.9775 45.2787 39.5067 44.7379 39.6188L39.9072 40.6199C39.3664 40.732 38.8371 40.3844 38.7251 39.8436L34.7342 20.5861ZM36.7778 21.9072C36.7019 21.541 36.9372 21.1827 37.3034 21.1068L39.3719 20.6781C39.7381 20.6022 40.0964 20.8376 40.1723 21.2037C40.2482 21.5699 40.0129 21.9282 39.6467 22.0041L37.5782 22.4328C37.212 22.5087 36.8536 22.2734 36.7778 21.9072ZM40.3265 35.6927C39.9604 35.7685 39.7251 36.1269 39.8009 36.4931C39.8768 36.8592 40.2352 37.0945 40.6013 37.0187L42.6699 36.59C43.036 36.5141 43.2714 36.1557 43.1955 35.7896C43.1196 35.4234 42.7612 35.1881 42.3951 35.264L40.3265 35.6927Z" fill="white"/>
<rect x="15.4648" y="41.6001" width="32.0667" height="4.33333" rx="1" fill="white"/>
<path d="M18.0664 46.7998H22.3997V49.8331C22.3997 51.0298 21.4297 51.9998 20.2331 51.9998C19.0365 51.9998 18.0664 51.0298 18.0664 49.8331V46.7998Z" fill="white"/>
<path d="M40.5977 46.8H44.931V49.8334C44.931 51.03 43.9609 52 42.7643 52C41.5677 52 40.5977 51.03 40.5977 49.8334V46.8Z" fill="white"/>
</svg>
