<svg width="274" height="39" viewBox="0 0 274 39" fill="none" xmlns="http://www.w3.org/2000/svg">
<path d="M24.6611 1.01367H35.4766V37H28.4697V12.6592C28.4697 11.9593 28.4779 10.9827 28.4941 9.72949C28.5104 8.45996 28.5186 7.4834 28.5186 6.7998L21.707 37H14.4072L7.64453 6.7998C7.64453 7.4834 7.65267 8.45996 7.66895 9.72949C7.68522 10.9827 7.69336 11.9593 7.69336 12.6592V37H0.686523V1.01367H11.624L18.167 29.3096L24.6611 1.01367ZM52.3955 15.418C50.7842 15.418 49.5309 15.9225 48.6357 16.9316C47.7568 17.9408 47.2035 19.3079 46.9756 21.0332H57.791C57.6771 19.194 57.1156 17.8024 56.1064 16.8584C55.1136 15.8981 53.8766 15.418 52.3955 15.418ZM52.3955 9.68066C54.609 9.68066 56.6029 10.0957 58.377 10.9258C60.151 11.7559 61.6159 13.0661 62.7715 14.8564C63.8132 16.4352 64.4886 18.2663 64.7979 20.3496C64.9769 21.5703 65.0501 23.3281 65.0176 25.623H46.8047C46.9023 28.2923 47.7406 30.1641 49.3193 31.2383C50.2796 31.9056 51.4352 32.2393 52.7861 32.2393C54.2184 32.2393 55.3822 31.8324 56.2773 31.0186C56.7656 30.5791 57.1969 29.9688 57.5713 29.1875H64.6758C64.4967 30.7663 63.6748 32.3695 62.21 33.9971C59.9313 36.585 56.7412 37.8789 52.6396 37.8789C49.2542 37.8789 46.2676 36.7884 43.6797 34.6074C41.0918 32.4264 39.7979 28.8783 39.7979 23.9629C39.7979 19.3568 40.9616 15.8249 43.2891 13.3672C45.6328 10.9095 48.6683 9.68066 52.3955 9.68066ZM79.5439 9.75391C81.1553 9.75391 82.5876 10.112 83.8408 10.8281C85.0941 11.528 86.1113 12.5046 86.8926 13.7578V1.0625H93.9482V37H87.1855V33.3135C86.1927 34.8923 85.0615 36.0397 83.792 36.7559C82.5225 37.472 80.9437 37.8301 79.0557 37.8301C75.9469 37.8301 73.3265 36.5768 71.1943 34.0703C69.0785 31.5475 68.0205 28.3167 68.0205 24.3779C68.0205 19.8369 69.0622 16.2643 71.1455 13.6602C73.2451 11.056 76.0446 9.75391 79.5439 9.75391ZM81.0576 31.9707C83.027 31.9707 84.5244 31.2383 85.5498 29.7734C86.5752 28.3086 87.0879 26.4124 87.0879 24.085C87.0879 20.8298 86.266 18.5023 84.6221 17.1025C83.613 16.2562 82.4411 15.833 81.1064 15.833C79.0719 15.833 77.5745 16.6061 76.6143 18.1523C75.6702 19.6823 75.1982 21.5866 75.1982 23.8652C75.1982 26.3229 75.6784 28.2923 76.6387 29.7734C77.6152 31.2383 79.0882 31.9707 81.0576 31.9707Z" fill="#FD9326"/>
<path d="M115.97 0.15918C120.511 0.15918 124.035 1.35547 126.541 3.74805C129.048 6.14062 130.439 8.85872 130.716 11.9023H125.979C125.442 9.59115 124.368 7.76009 122.757 6.40918C121.162 5.05827 118.916 4.38281 116.019 4.38281C112.487 4.38281 109.63 5.62793 107.449 8.11816C105.285 10.5921 104.202 14.3926 104.202 19.5195C104.202 23.7188 105.179 27.1286 107.132 29.749C109.101 32.3532 112.031 33.6553 115.921 33.6553C119.502 33.6553 122.228 32.2799 124.1 29.5293C125.092 28.0807 125.833 26.1764 126.321 23.8164H131.058C130.634 27.5924 129.235 30.7581 126.858 33.3135C124.01 36.3896 120.169 37.9277 115.335 37.9277C111.168 37.9277 107.669 36.6663 104.837 34.1436C101.11 30.807 99.2461 25.6556 99.2461 18.6895C99.2461 13.3997 100.646 9.06217 103.445 5.67676C106.473 1.99837 110.647 0.15918 115.97 0.15918ZM152.469 0.15918C158.8 0.15918 163.488 2.19368 166.531 6.2627C168.908 9.43652 170.096 13.4974 170.096 18.4453C170.096 23.8001 168.737 28.2516 166.019 31.7998C162.828 35.9665 158.279 38.0498 152.371 38.0498C146.854 38.0498 142.516 36.2269 139.358 32.5811C136.543 29.0654 135.135 24.6221 135.135 19.251C135.135 14.4007 136.339 10.2503 138.748 6.7998C141.84 2.37272 146.414 0.15918 152.469 0.15918ZM152.957 33.7041C157.238 33.7041 160.33 32.1742 162.234 29.1143C164.155 26.0381 165.115 22.5062 165.115 18.5186C165.115 14.3031 164.008 10.9095 161.795 8.33789C159.598 5.76628 156.587 4.48047 152.762 4.48047C149.051 4.48047 146.023 5.75814 143.68 8.31348C141.336 10.8525 140.164 14.6042 140.164 19.5684C140.164 23.5397 141.165 26.8926 143.167 29.627C145.185 32.3451 148.449 33.7041 152.957 33.7041ZM194.314 22.3027L188.87 6.45801L183.084 22.3027H194.314ZM186.331 1.13574H191.824L204.837 37H199.515L195.877 26.2578H181.692L177.811 37H172.83L186.331 1.13574ZM224.368 0.15918C228.909 0.15918 232.433 1.35547 234.939 3.74805C237.446 6.14062 238.838 8.85872 239.114 11.9023H234.378C233.841 9.59115 232.767 7.76009 231.155 6.40918C229.56 5.05827 227.314 4.38281 224.417 4.38281C220.885 4.38281 218.029 5.62793 215.848 8.11816C213.683 10.5921 212.601 14.3926 212.601 19.5195C212.601 23.7188 213.577 27.1286 215.53 29.749C217.5 32.3532 220.429 33.6553 224.319 33.6553C227.9 33.6553 230.626 32.2799 232.498 29.5293C233.491 28.0807 234.231 26.1764 234.72 23.8164H239.456C239.033 27.5924 237.633 30.7581 235.257 33.3135C232.409 36.3896 228.567 37.9277 223.733 37.9277C219.567 37.9277 216.067 36.6663 213.235 34.1436C209.508 30.807 207.645 25.6556 207.645 18.6895C207.645 13.3997 209.044 9.06217 211.844 5.67676C214.871 1.99837 219.046 0.15918 224.368 0.15918ZM245.511 1.13574H250.418V15.9551H269.07V1.13574H273.978V37H269.07V20.2275H250.418V37H245.511V1.13574Z" fill="black"/>
</svg>
