<svg width="64" height="64" viewBox="0 0 64 64" fill="none" xmlns="http://www.w3.org/2000/svg">
<circle cx="32" cy="32" r="32" fill="#FD9326"/>
<path fill-rule="evenodd" clip-rule="evenodd" d="M19.0938 17C19.0938 15.8954 19.9892 15 21.0937 15H42.9102C44.0147 15 44.9102 15.8954 44.9102 17V46.4C44.9102 47.5046 44.0147 48.4 42.9102 48.4H21.0938C19.9892 48.4 19.0938 47.5046 19.0938 46.4V17ZM28.9375 21.7767C28.9375 21.0638 29.5154 20.4858 30.2283 20.4858H40.7162C41.4291 20.4858 42.0071 21.0638 42.0071 21.7767C42.0071 22.4896 41.4291 23.0675 40.7162 23.0675H30.2283C29.5154 23.0675 28.9375 22.4896 28.9375 21.7767ZM30.2283 26.9399C29.5154 26.9399 28.9375 27.5179 28.9375 28.2308C28.9375 28.9437 29.5154 29.5216 30.2283 29.5216H40.7162C41.4291 29.5216 42.0071 28.9437 42.0071 28.2308C42.0071 27.5179 41.4291 26.9399 40.7162 26.9399H30.2283ZM28.9375 34.6849C28.9375 33.972 29.5154 33.394 30.2283 33.394H40.7162C41.4291 33.394 42.0071 33.972 42.0071 34.6849C42.0071 35.3978 41.4291 35.9757 40.7162 35.9757H30.2283C29.5154 35.9757 28.9375 35.3978 28.9375 34.6849ZM29.905 39.8483C29.1921 39.8483 28.6142 40.4263 28.6142 41.1392C28.6142 41.8521 29.1921 42.43 29.905 42.43H40.3929C41.1058 42.43 41.6838 41.8521 41.6838 41.1392C41.6838 40.4263 41.1058 39.8483 40.3929 39.8483H29.905ZM26.3552 41.1392C26.3552 41.8521 25.7773 42.43 25.0644 42.43C24.3515 42.43 23.7736 41.8521 23.7736 41.1392C23.7736 40.4263 24.3515 39.8483 25.0644 39.8483C25.7773 39.8483 26.3552 40.4263 26.3552 41.1392ZM25.0644 35.9759C25.7773 35.9759 26.3552 35.398 26.3552 34.6851C26.3552 33.9722 25.7773 33.3942 25.0644 33.3942C24.3515 33.3942 23.7736 33.9722 23.7736 34.6851C23.7736 35.398 24.3515 35.9759 25.0644 35.9759ZM26.3552 28.231C26.3552 28.9439 25.7773 29.5218 25.0644 29.5218C24.3515 29.5218 23.7736 28.9439 23.7736 28.231C23.7736 27.5181 24.3515 26.9401 25.0644 26.9401C25.7773 26.9401 26.3552 27.5181 26.3552 28.231ZM25.0644 23.0677C25.7773 23.0677 26.3552 22.4898 26.3552 21.7769C26.3552 21.064 25.7773 20.486 25.0644 20.486C24.3515 20.486 23.7736 21.064 23.7736 21.7769C23.7736 22.4898 24.3515 23.0677 25.0644 23.0677Z" fill="white"/>
</svg>
