<svg width="64" height="64" viewBox="0 0 64 64" fill="none" xmlns="http://www.w3.org/2000/svg">
<path fill-rule="evenodd" clip-rule="evenodd" d="M32 64C49.6731 64 64 49.6731 64 32C64 14.3269 49.6731 0 32 0C14.3269 0 0 14.3269 0 32C0 49.6731 14.3269 64 32 64ZM21.0938 15C19.9892 15 19.0938 15.8954 19.0938 17V46.4C19.0938 47.5046 19.9892 48.4 21.0938 48.4H42.9102C44.0147 48.4 44.9102 47.5046 44.9102 46.4V17C44.9102 15.8954 44.0147 15 42.9102 15H21.0938ZM30.2283 20.4858C29.5154 20.4858 28.9375 21.0638 28.9375 21.7767C28.9375 22.4896 29.5154 23.0675 30.2283 23.0675H40.7162C41.4291 23.0675 42.0071 22.4896 42.0071 21.7767C42.0071 21.0638 41.4291 20.4858 40.7162 20.4858H30.2283ZM28.9375 28.2308C28.9375 27.5179 29.5154 26.9399 30.2283 26.9399H40.7162C41.4291 26.9399 42.0071 27.5179 42.0071 28.2308C42.0071 28.9437 41.4291 29.5216 40.7162 29.5216H30.2283C29.5154 29.5216 28.9375 28.9437 28.9375 28.2308ZM30.2283 33.394C29.5154 33.394 28.9375 33.972 28.9375 34.6849C28.9375 35.3978 29.5154 35.9757 30.2283 35.9757H40.7162C41.4291 35.9757 42.0071 35.3978 42.0071 34.6849C42.0071 33.972 41.4291 33.394 40.7162 33.394H30.2283ZM28.6142 41.1392C28.6142 40.4263 29.1921 39.8484 29.905 39.8484H40.3929C41.1058 39.8484 41.6838 40.4263 41.6838 41.1392C41.6838 41.8521 41.1058 42.43 40.3929 42.43H29.905C29.1921 42.43 28.6142 41.8521 28.6142 41.1392ZM25.0644 42.43C25.7773 42.43 26.3552 41.8521 26.3552 41.1392C26.3552 40.4263 25.7773 39.8484 25.0644 39.8484C24.3515 39.8484 23.7736 40.4263 23.7736 41.1392C23.7736 41.8521 24.3515 42.43 25.0644 42.43ZM26.3552 34.6851C26.3552 35.398 25.7773 35.9759 25.0644 35.9759C24.3515 35.9759 23.7736 35.398 23.7736 34.6851C23.7736 33.9722 24.3515 33.3942 25.0644 33.3942C25.7773 33.3942 26.3552 33.9722 26.3552 34.6851ZM25.0644 29.5218C25.7773 29.5218 26.3552 28.9439 26.3552 28.231C26.3552 27.5181 25.7773 26.9401 25.0644 26.9401C24.3515 26.9401 23.7736 27.5181 23.7736 28.231C23.7736 28.9439 24.3515 29.5218 25.0644 29.5218ZM26.3552 21.7769C26.3552 22.4898 25.7773 23.0677 25.0644 23.0677C24.3515 23.0677 23.7736 22.4898 23.7736 21.7769C23.7736 21.0639 24.3515 20.486 25.0644 20.486C25.7773 20.486 26.3552 21.0639 26.3552 21.7769Z" fill="#5F5F5F"/>
</svg>
